<svg width="14" height="15" viewBox="0 0 14 15" fill="none" xmlns="http://www.w3.org/2000/svg">
<path d="M6.33691 11.1175H5.81629C5.63478 11.1175 5.48175 11.0546 5.35721 10.9288C5.23257 10.8031 5.17025 10.6494 5.17025 10.4678C5.17025 10.2863 5.2331 10.1332 5.35881 10.0087C5.48462 9.88406 5.63828 9.82175 5.81979 9.82175H6.33691V8.65945C5.56653 8.50711 4.93643 8.12789 4.44662 7.52181C3.95682 6.91582 3.71191 6.21674 3.71191 5.42458C3.71191 4.51662 4.03299 3.74521 4.67514 3.11035C5.31739 2.47558 6.0925 2.1582 7.00046 2.1582C7.90841 2.1582 8.68352 2.47558 9.32577 3.11035C9.96792 3.74521 10.289 4.51662 10.289 5.42458C10.289 6.21674 10.0441 6.91582 9.55429 7.52181C9.06448 8.12789 8.43439 8.50711 7.664 8.65945V9.82175H8.18462C8.36614 9.82175 8.51916 9.88406 8.64371 10.0087C8.76834 10.1332 8.83066 10.2863 8.83066 10.4678C8.83066 10.6494 8.76834 10.8031 8.64371 10.9288C8.51916 11.0546 8.36614 11.1175 8.18462 11.1175H7.664V11.6206C7.664 11.8068 7.59998 11.9639 7.47194 12.0919C7.3438 12.2201 7.18664 12.2841 7.00046 12.2841C6.81428 12.2841 6.65712 12.2201 6.52898 12.0919C6.40093 11.9639 6.33691 11.8068 6.33691 11.6206V11.1175ZM7.00046 7.4082C7.54344 7.4082 8.00607 7.21702 8.38835 6.83464C8.77073 6.45236 8.96191 5.98973 8.96191 5.44675C8.96191 4.90376 8.77073 4.44113 8.38835 4.05885C8.00607 3.67647 7.54344 3.48529 7.00046 3.48529C6.45747 3.48529 5.99484 3.67647 5.61256 4.05885C5.23018 4.44113 5.039 4.90376 5.039 5.44675C5.039 5.98973 5.23018 6.45236 5.61256 6.83464C5.99484 7.21702 6.45747 7.4082 7.00046 7.4082Z" fill="white"/>
</svg>
