<svg width="24" height="25" viewBox="0 0 24 25" fill="none" xmlns="http://www.w3.org/2000/svg">
<path d="M20.1019 7.53672C19.2285 7.53672 18.4873 7.23214 17.8781 6.62297C17.269 6.0138 16.9644 5.27255 16.9644 4.39922C16.9644 3.52605 17.269 2.78489 17.8781 2.17572C18.4873 1.56639 19.2285 1.26172 20.1019 1.26172C20.975 1.26172 21.7162 1.56639 22.3254 2.17572C22.9347 2.78489 23.2394 3.52605 23.2394 4.39922C23.2394 5.27255 22.9347 6.0138 22.3254 6.62297C21.7162 7.23214 20.975 7.53672 20.1019 7.53672ZM13.9876 21.7042C13.0598 21.7042 12.2755 21.385 11.6349 20.7465C10.9944 20.1078 10.6741 19.3113 10.6741 18.357C10.6741 17.0863 11.1896 15.9266 12.2206 14.8777C13.2515 13.8287 14.5216 13.1792 16.0311 12.9292C15.9851 12.3651 15.8431 11.9378 15.6051 11.6475C15.367 11.357 15.0372 11.2117 14.6159 11.2117C14.1079 11.2117 13.5592 11.4261 12.9699 11.8547C12.3805 12.2834 11.6919 12.9747 10.9039 13.9287C9.64371 15.4587 8.68954 16.4711 8.04138 16.9657C7.39321 17.4602 6.70521 17.7075 5.97737 17.7075C5.08354 17.7075 4.32996 17.3769 3.71663 16.7157C3.10346 16.0544 2.79688 15.2538 2.79688 14.314C2.79688 13.434 2.99371 12.5301 3.38738 11.6022C3.78104 10.6746 4.44054 9.5723 5.36588 8.29547C5.77821 7.74664 6.06037 7.33014 6.21237 7.04597C6.36437 6.76197 6.44037 6.5283 6.44037 6.34497C6.44037 6.2323 6.41854 6.1458 6.37487 6.08547C6.33121 6.02514 6.26771 5.99497 6.18438 5.99497C6.10504 5.99497 6.01304 6.01697 5.90838 6.06097C5.80354 6.10497 5.69046 6.18572 5.56912 6.30322C5.29529 6.54455 4.98388 6.67447 4.63487 6.69297C4.28604 6.71164 3.98696 6.59639 3.73762 6.34722C3.46762 6.06455 3.32654 5.73013 3.31438 5.34397C3.30204 4.95763 3.43913 4.63989 3.72563 4.39072C4.13363 4.03672 4.54954 3.76605 4.97337 3.57872C5.39737 3.39139 5.81296 3.29772 6.22012 3.29772C7.04663 3.29772 7.73354 3.5783 8.28088 4.13947C8.82821 4.7008 9.10188 5.39339 9.10188 6.21722C9.10188 6.75239 8.96887 7.32464 8.70287 7.93397C8.43687 8.54314 7.99029 9.27797 7.36312 10.1385C6.71396 11.0385 6.23713 11.8122 5.93263 12.4597C5.62829 13.1072 5.47612 13.6713 5.47612 14.152C5.47612 14.4115 5.52096 14.6154 5.61063 14.7637C5.70029 14.9121 5.82454 14.9862 5.98338 14.9862C6.15004 14.9862 6.29788 14.9404 6.42688 14.8487C6.55571 14.7571 6.78488 14.5382 7.11438 14.1922C7.32704 13.9669 7.57838 13.6884 7.86838 13.3567C8.15838 13.0251 8.50813 12.6191 8.91763 12.139C10.0035 10.8371 10.9813 9.90963 11.8511 9.35647C12.7211 8.80313 13.6367 8.52647 14.5979 8.52647C15.7465 8.52647 16.6911 8.90847 17.4316 9.67247C18.1723 10.4365 18.5965 11.4784 18.7044 12.7982H19.8636C20.2376 12.7982 20.5544 12.9281 20.8139 13.1877C21.0735 13.4472 21.2034 13.764 21.2034 14.138C21.2034 14.5118 21.0735 14.8286 20.8139 15.0882C20.5544 15.3479 20.2376 15.4777 19.8636 15.4777H18.7104C18.569 17.3602 18.0706 18.8686 17.2151 20.003C16.3595 21.1371 15.2836 21.7042 13.9876 21.7042ZM14.0376 19.001C14.5271 19.001 14.9413 18.7127 15.2801 18.1362C15.6188 17.5599 15.8608 16.738 16.0061 15.6705C15.2833 15.8538 14.6605 16.2034 14.1376 16.7192C13.6148 17.2349 13.3534 17.7555 13.3534 18.281C13.3534 18.5023 13.415 18.6776 13.5384 18.807C13.6617 18.9363 13.8281 19.001 14.0376 19.001Z" fill="white"/>
</svg>
