<svg width="14" height="15" viewBox="0 0 14 15" fill="none" xmlns="http://www.w3.org/2000/svg">
<path d="M11.775 3.77096V6.1043C11.775 6.29057 11.711 6.44773 11.583 6.57578C11.4549 6.70382 11.2978 6.76784 11.1115 6.76784C10.9253 6.76784 10.7682 6.70382 10.6402 6.57578C10.512 6.44773 10.448 6.29057 10.448 6.1043V5.37746L8.25827 7.55257C8.43833 7.82479 8.57405 8.11344 8.66544 8.41853C8.75693 8.72361 8.80267 9.0391 8.80267 9.36498C8.80267 10.2803 8.48339 11.0573 7.84484 11.6958C7.20638 12.3343 6.42947 12.6535 5.51413 12.6535C4.59868 12.6535 3.82173 12.3343 3.18327 11.6958C2.54482 11.0573 2.22559 10.2803 2.22559 9.36498C2.22559 8.44964 2.54482 7.67269 3.18327 7.03413C3.82173 6.39567 4.59868 6.07644 5.51413 6.07644C5.83263 6.07644 6.14627 6.12087 6.45504 6.20974C6.76382 6.2986 7.04946 6.4368 7.31196 6.62434L9.50165 4.43451H8.77817C8.59199 4.43451 8.43488 4.37048 8.30684 4.24244C8.1787 4.1144 8.11463 3.95724 8.11463 3.77096C8.11463 3.58478 8.1787 3.42767 8.30684 3.29963C8.43488 3.17149 8.59199 3.10742 8.77817 3.10742H11.1115C11.2978 3.10742 11.4549 3.17149 11.583 3.29963C11.711 3.42767 11.775 3.58478 11.775 3.77096ZM5.51413 7.40353C4.97114 7.40353 4.50846 7.59471 4.12609 7.97709C3.74381 8.35937 3.55267 8.822 3.55267 9.36498C3.55267 9.90797 3.74381 10.3706 4.12609 10.7529C4.50846 11.1353 4.97114 11.3264 5.51413 11.3264C6.05702 11.3264 6.51965 11.1353 6.90202 10.7529C7.2844 10.3706 7.47559 9.90797 7.47559 9.36498C7.47559 8.822 7.2844 8.35937 6.90202 7.97709C6.51965 7.59471 6.05702 7.40353 5.51413 7.40353Z" fill="white"/>
</svg>
