<svg width="24" height="24" viewBox="0 0 24 24" fill="none" xmlns="http://www.w3.org/2000/svg">
<g clip-path="url(#clip0_1605_3442)">
<path d="M12.0029 20.2746C11.4271 20.2746 10.9343 20.07 10.5247 19.6609C10.115 19.2515 9.91016 18.7595 9.91016 18.1849C9.91016 17.6085 10.1148 17.1152 10.5242 16.7049C10.9333 16.2945 11.4252 16.0894 11.9999 16.0894C12.5777 16.0894 13.0705 16.2943 13.4782 16.7041C13.8858 17.1141 14.0897 17.6069 14.0897 18.1824C14.0897 18.758 13.8858 19.2506 13.4782 19.6601C13.0705 20.0698 12.5787 20.2746 12.0029 20.2746ZM12.0029 14.0894C11.4271 14.0894 10.9343 13.8847 10.5247 13.4754C10.115 13.0662 9.91016 12.5743 9.91016 11.9996C9.91016 11.4218 10.1148 10.929 10.5242 10.5214C10.9333 10.1137 11.4252 9.90986 11.9999 9.90986C12.5777 9.90986 13.0705 10.1137 13.4782 10.5214C13.8858 10.929 14.0897 11.4208 14.0897 11.9966C14.0897 12.5724 13.8858 13.0652 13.4782 13.4749C13.0705 13.8845 12.5787 14.0894 12.0029 14.0894ZM12.0029 7.90986C11.4271 7.90986 10.9343 7.70453 10.5247 7.29386C10.115 6.88319 9.91016 6.38944 9.91016 5.81261C9.91016 5.23578 10.1148 4.74361 10.5242 4.33611C10.9333 3.92844 11.4252 3.72461 11.9999 3.72461C12.5777 3.72461 13.0705 3.92844 13.4782 4.33611C13.8858 4.74361 14.0897 5.23578 14.0897 5.81261C14.0897 6.38944 13.8858 6.88319 13.4782 7.29386C13.0705 7.70453 12.5787 7.90986 12.0029 7.90986Z" fill="#D1D1D1"/>
</g>
<defs>
<clipPath id="clip0_1605_3442">
<rect width="24" height="24" fill="white"/>
</clipPath>
</defs>
</svg>
