<svg width="14" height="15" viewBox="0 0 14 15" fill="none" xmlns="http://www.w3.org/2000/svg">
<path d="M6.99983 12.9742C5.99737 12.9742 5.14424 12.6223 4.44045 11.9184C3.73666 11.2146 3.38477 10.3615 3.38477 9.35903C3.38477 8.4678 3.66661 7.69021 4.23031 7.02628C4.794 6.36225 5.49599 5.95407 6.33629 5.80172V2.79245C6.33629 2.60627 6.40031 2.44916 6.52835 2.32111C6.65649 2.19298 6.81365 2.12891 6.99983 2.12891C7.18601 2.12891 7.34317 2.19298 7.47131 2.32111C7.59935 2.44916 7.66337 2.60627 7.66337 2.79245V5.80172C8.51115 5.95407 9.21499 6.36167 9.77489 7.02453C10.3349 7.6873 10.6149 8.46546 10.6149 9.35903C10.6149 10.3615 10.2636 11.2146 9.56095 11.9184C8.85833 12.6223 8.00462 12.9742 6.99983 12.9742ZM6.99983 11.6472C7.52104 11.6472 7.98065 11.4923 8.37868 11.1827C8.77681 10.873 9.04743 10.4805 9.19054 10.0052H4.80912C4.95223 10.4805 5.22343 10.873 5.62272 11.1827C6.02192 11.4923 6.48095 11.6472 6.99983 11.6472ZM4.80912 8.71299H9.19054C9.04743 8.23534 8.77681 7.84227 8.37868 7.53378C7.98065 7.2253 7.52104 7.07105 6.99983 7.07105C6.48095 7.07105 6.02192 7.2253 5.62272 7.53378C5.22343 7.84227 4.95223 8.23534 4.80912 8.71299Z" fill="white"/>
</svg>
