<svg width="100%" height="100%" viewBox="0 0 44 44" fill="none" xmlns="http://www.w3.org/2000/svg">
<path d="M19.7409 24.2591V30.6247C19.7409 31.2647 19.9574 31.8013 20.3904 32.2343C20.8234 32.6673 21.36 32.8838 22 32.8838C22.64 32.8838 23.1766 32.6673 23.6096 32.2343C24.0426 31.8013 24.2591 31.2647 24.2591 30.6247V24.2591H30.6247C31.2647 24.2591 31.8013 24.0426 32.2343 23.6096C32.6673 23.1766 32.8838 22.64 32.8838 22C32.8838 21.36 32.6673 20.8234 32.2343 20.3904C31.8013 19.9574 31.2647 19.7409 30.6247 19.7409H24.2591V13.3753C24.2591 12.7353 24.0426 12.1987 23.6096 11.7657C23.1766 11.3327 22.64 11.1162 22 11.1162C21.36 11.1162 20.8234 11.3327 20.3904 11.7657C19.9574 12.1987 19.7409 12.7353 19.7409 13.3753V19.7409H13.3753C12.7353 19.7409 12.1987 19.9574 11.7657 20.3904C11.3327 20.8234 11.1162 21.36 11.1162 22C11.1162 22.64 11.3327 23.1766 11.7657 23.6096C12.1987 24.0426 12.7353 24.2591 13.3753 24.2591H19.7409ZM22 44C18.9487 44 16.0856 43.4229 13.4109 42.2686C10.7358 41.1143 8.40891 39.548 6.43025 37.5697C4.45196 35.5911 2.88568 33.2642 1.73141 30.5891C0.577136 27.9144 0 25.0513 0 22C0 18.9487 0.577136 16.0856 1.73141 13.4109C2.88568 10.7358 4.45196 8.4089 6.43025 6.43025C8.40891 4.45196 10.7358 2.88568 13.4109 1.73141C16.0856 0.577136 18.9487 0 22 0C25.0513 0 27.9144 0.577136 30.5891 1.73141C33.2642 2.88568 35.5911 4.45196 37.5697 6.43025C39.548 8.4089 41.1143 10.7358 42.2686 13.4109C43.4229 16.0856 44 18.9487 44 22C44 25.0513 43.4229 27.9144 42.2686 30.5891C41.1143 33.2642 39.548 35.5911 37.5697 37.5697C35.5911 39.548 33.2642 41.1143 30.5891 42.2686C27.9144 43.4229 25.0513 44 22 44Z" fill="#D1D1D1"/>
</svg>
