<svg width="100%" height="100%" viewBox="0 0 26 29" fill="none" xmlns="http://www.w3.org/2000/svg">
<path d="M5.40098 28.8035C4.45648 28.8035 3.6516 28.4709 2.98635 27.8056C2.3211 27.1404 1.98848 26.3355 1.98848 25.391V6.09727C1.50973 6.09727 1.1056 5.93264 0.776101 5.60339C0.446852 5.27389 0.282227 4.86977 0.282227 4.39102C0.282227 3.91227 0.446852 3.50814 0.776101 3.17864C1.1056 2.84939 1.50973 2.68477 1.98848 2.68477H8.29335C8.29335 2.20602 8.45798 1.80189 8.78723 1.47239C9.11673 1.14314 9.52085 0.978516 9.9996 0.978516H15.9816C16.4604 0.978516 16.8645 1.14314 17.194 1.47239C17.5232 1.80189 17.6879 2.20602 17.6879 2.68477H24.0107C24.4895 2.68477 24.8936 2.84939 25.2231 3.17864C25.5524 3.50814 25.717 3.91227 25.717 4.39102C25.717 4.86977 25.5524 5.27389 25.2231 5.60339C24.8936 5.93264 24.4895 6.09727 24.0107 6.09727V25.391C24.0107 26.3355 23.6781 27.1404 23.0129 27.8056C22.3476 28.4709 21.5427 28.8035 20.5982 28.8035H5.40098ZM9.94598 22.4896C10.3947 22.4896 10.7734 22.3354 11.0819 22.0269C11.3904 21.7186 11.5446 21.34 11.5446 20.891V10.5883C11.5446 10.1393 11.3904 9.76064 11.0819 9.45239C10.7734 9.14389 10.3947 8.98964 9.94598 8.98964C9.49698 8.98964 9.11673 9.14389 8.80523 9.45239C8.49398 9.76064 8.33835 10.1393 8.33835 10.5883V20.891C8.33835 21.34 8.49398 21.7186 8.80523 22.0269C9.11673 22.3354 9.49698 22.4896 9.94598 22.4896ZM16.0622 22.4896C16.5112 22.4896 16.89 22.3354 17.1985 22.0269C17.5067 21.7186 17.6609 21.34 17.6609 20.891V10.5883C17.6609 10.1393 17.5067 9.76064 17.1985 9.45239C16.89 9.14389 16.5112 8.98964 16.0622 8.98964C15.6135 8.98964 15.2334 9.14389 14.9219 9.45239C14.6104 9.76064 14.4546 10.1393 14.4546 10.5883V20.891C14.4546 21.34 14.6104 21.7186 14.9219 22.0269C15.2334 22.3354 15.6135 22.4896 16.0622 22.4896Z" fill="#D1D1D1"/>
</svg>
